<svg width="689" height="689" viewBox="0 0 689 689" fill="none" xmlns="http://www.w3.org/2000/svg">
<g filter="url(#filter0_d_213_2)">
<g filter="url(#filter1_d_213_2)">
<path fill-rule="evenodd" clip-rule="evenodd" d="M234.659 94H164.329V164.33H234.659V94ZM304.99 164.33H234.66V234.659V304.989H304.99H375.319H445.648H515.978V234.659L445.648 234.659V164.33H375.318L375.319 234.659L304.99 234.659V164.33ZM164.329 234.659H234.659V304.989H164.329V234.659ZM445.648 586.308V515.978L515.978 515.978V445.648H445.648H375.319H304.99H234.66V515.978V586.308H304.99V515.978L375.318 515.978V586.308H445.648ZM234.659 375.319V445.648H164.329H94V375.319V304.989H164.329H234.659V375.319ZM304.99 375.319H234.66V445.648H304.99H375.319H445.648H515.978H586.308V375.319V304.989H515.978H445.648V375.319H375.319V304.989H304.99V375.319ZM445.648 94H515.978V164.33H445.648V94ZM164.329 445.648H234.659V515.978H164.329V445.648Z" fill="white"/>
</g>
</g>
<defs>
<filter id="filter0_d_213_2" x="0" y="0" width="688.308" height="688.308" filterUnits="userSpaceOnUse" color-interpolation-filters="sRGB">
<feFlood flood-opacity="0" result="BackgroundImageFix"/>
<feColorMatrix in="SourceAlpha" type="matrix" values="0 0 0 0 0 0 0 0 0 0 0 0 0 0 0 0 0 0 127 0" result="hardAlpha"/>
<feOffset dx="4" dy="4"/>
<feGaussianBlur stdDeviation="49"/>
<feComposite in2="hardAlpha" operator="out"/>
<feColorMatrix type="matrix" values="0 0 0 0 0 0 0 0 0 0 0 0 0 0 0 0 0 0 0.27 0"/>
<feBlend mode="normal" in2="BackgroundImageFix" result="effect1_dropShadow_213_2"/>
<feBlend mode="normal" in="SourceGraphic" in2="effect1_dropShadow_213_2" result="shape"/>
</filter>
<filter id="filter1_d_213_2" x="90" y="94" width="500.308" height="500.308" filterUnits="userSpaceOnUse" color-interpolation-filters="sRGB">
<feFlood flood-opacity="0" result="BackgroundImageFix"/>
<feColorMatrix in="SourceAlpha" type="matrix" values="0 0 0 0 0 0 0 0 0 0 0 0 0 0 0 0 0 0 127 0" result="hardAlpha"/>
<feOffset dy="4"/>
<feGaussianBlur stdDeviation="2"/>
<feComposite in2="hardAlpha" operator="out"/>
<feColorMatrix type="matrix" values="0 0 0 0 0 0 0 0 0 0 0 0 0 0 0 0 0 0 0.25 0"/>
<feBlend mode="normal" in2="BackgroundImageFix" result="effect1_dropShadow_213_2"/>
<feBlend mode="normal" in="SourceGraphic" in2="effect1_dropShadow_213_2" result="shape"/>
</filter>
</defs>
</svg>
