<svg width="48" height="49" viewBox="0 0 48 49" fill="none" xmlns="http://www.w3.org/2000/svg">
<path d="M0 24C0 10.7452 10.7452 0 24 0V0C37.2548 0 48 10.7452 48 24V24C48 37.2548 37.2548 48 24 48V48C10.7452 48 0 37.2548 0 24V24Z" fill="url(#paint0_linear_202_33)"/>
<g filter="url(#filter0_d_202_33)">
<rect x="14.0892" y="10.125" width="3.96429" height="3.96429" fill="white"/>
<rect x="18.0536" y="14.0893" width="3.96429" height="3.96429" fill="white"/>
<rect x="14.0892" y="18.0536" width="3.96429" height="3.96429" fill="white"/>
<rect x="18.0536" y="18.0536" width="3.96429" height="3.96429" fill="white"/>
<rect x="22.0179" y="18.0536" width="3.96429" height="3.96429" fill="white"/>
<rect x="25.9821" y="18.0536" width="3.96429" height="3.96429" fill="white"/>
<rect x="25.9821" y="14.0893" width="3.96429" height="3.96429" fill="white"/>
<rect x="29.9464" y="10.125" width="3.96429" height="3.96429" fill="white"/>
<rect x="29.9464" y="18.0536" width="3.96429" height="3.96429" fill="white"/>
<rect x="14.0892" y="29.9464" width="3.96429" height="3.96429" fill="white"/>
<rect x="18.0536" y="29.9464" width="3.96429" height="3.96429" fill="white"/>
<rect x="25.9821" y="33.9107" width="3.96429" height="3.96429" fill="white"/>
<rect x="18.0536" y="33.9107" width="3.96429" height="3.96429" fill="white"/>
<rect x="22.0179" y="29.9464" width="3.96429" height="3.96429" fill="white"/>
<rect x="25.9821" y="29.9464" width="3.96429" height="3.96429" fill="white"/>
<rect x="29.9464" y="29.9464" width="3.96429" height="3.96429" fill="white"/>
<rect x="14.0892" y="25.9821" width="3.96429" height="3.96429" fill="white"/>
<rect x="18.0536" y="25.9821" width="3.96429" height="3.96429" fill="white"/>
<rect x="22.0179" y="25.9821" width="3.96429" height="3.96429" fill="white"/>
<rect x="25.9821" y="25.9821" width="3.96429" height="3.96429" fill="white"/>
<rect x="29.9464" y="25.9821" width="3.96429" height="3.96429" fill="white"/>
<rect x="14.0892" y="22.0179" width="3.96429" height="3.96429" fill="white"/>
<rect x="33.9107" y="25.9821" width="3.96429" height="3.96429" fill="white"/>
<rect x="33.9107" y="22.0179" width="3.96429" height="3.96429" fill="white"/>
<rect x="10.125" y="25.9821" width="3.96429" height="3.96429" fill="white"/>
<rect x="10.125" y="22.0179" width="3.96429" height="3.96429" fill="white"/>
<rect x="22.0179" y="22.0179" width="3.96429" height="3.96429" fill="white"/>
<rect x="29.9464" y="22.0179" width="3.96429" height="3.96429" fill="white"/>
</g>
<defs>
<filter id="filter0_d_202_33" x="6.125" y="10.125" width="35.75" height="38.75" filterUnits="userSpaceOnUse" color-interpolation-filters="sRGB">
<feFlood flood-opacity="0" result="BackgroundImageFix"/>
<feColorMatrix in="SourceAlpha" type="matrix" values="0 0 0 0 0 0 0 0 0 0 0 0 0 0 0 0 0 0 127 0" result="hardAlpha"/>
<feOffset dy="7"/>
<feGaussianBlur stdDeviation="2"/>
<feComposite in2="hardAlpha" operator="out"/>
<feColorMatrix type="matrix" values="0 0 0 0 0 0 0 0 0 0 0 0 0 0 0 0 0 0 0.25 0"/>
<feBlend mode="normal" in2="BackgroundImageFix" result="effect1_dropShadow_202_33"/>
<feBlend mode="normal" in="SourceGraphic" in2="effect1_dropShadow_202_33" result="shape"/>
</filter>
<linearGradient id="paint0_linear_202_33" x1="23.4375" y1="53.0625" x2="23.4375" y2="-38.4375" gradientUnits="userSpaceOnUse">
<stop stop-color="#3F82FB"/>
<stop offset="0.5" stop-color="#6861FC"/>
<stop offset="1" stop-color="#9241FE"/>
</linearGradient>
</defs>
</svg>
