<?xml version="1.0" standalone="no"?>
<!DOCTYPE svg PUBLIC "-//W3C//DTD SVG 20010904//EN"
 "http://www.w3.org/TR/2001/REC-SVG-20010904/DTD/svg10.dtd">
<svg version="1.0" xmlns="http://www.w3.org/2000/svg"
 width="800.000000pt" height="800.000000pt" viewBox="0 0 800.000000 800.000000"
 preserveAspectRatio="xMidYMid meet">
<metadata>
Created by potrace 1.14, written by Peter Selinger 2001-2017
</metadata>
<g transform="translate(0.000000,800.000000) scale(0.100000,-0.100000)"
fill="#000000" stroke="none">
<path d="M1829 7996 c-2 -2 -29 -7 -60 -10 -31 -4 -65 -8 -75 -10 -11 -2 -39
-7 -64 -12 -25 -5 -49 -9 -55 -9 -5 -1 -19 -4 -30 -8 -11 -3 -33 -9 -50 -12
-33 -7 -42 -9 -65 -17 -8 -3 -51 -18 -95 -33 -155 -52 -414 -190 -530 -281
-16 -14 -35 -28 -40 -32 -117 -85 -319 -297 -400 -422 -17 -25 -32 -47 -35
-50 -11 -11 -79 -128 -113 -195 -68 -134 -149 -354 -163 -444 -3 -20 -8 -39
-9 -42 -2 -3 -7 -28 -11 -55 -3 -27 -8 -52 -10 -55 -2 -3 -7 -34 -11 -70 -10
-81 -11 -4359 -1 -4454 25 -228 81 -428 183 -642 117 -245 270 -451 471 -634
61 -55 227 -179 240 -179 7 0 14 -4 16 -9 6 -17 189 -116 303 -163 179 -75
377 -127 555 -146 86 -9 4379 -9 4450 0 30 4 93 15 140 24 47 9 95 18 108 20
87 17 296 95 425 160 247 125 508 337 660 537 12 16 31 41 43 55 145 185 311
549 348 762 2 14 7 43 11 65 4 22 9 49 11 60 2 11 7 47 11 80 10 78 10 4360 1
4445 -5 36 -11 83 -14 105 -8 59 -51 228 -80 320 -30 92 -173 390 -204 422
-11 12 -20 26 -20 31 0 9 -93 134 -143 192 -241 281 -512 468 -859 594 -69 25
-136 47 -149 50 -13 2 -46 10 -74 16 -27 6 -59 13 -70 14 -11 2 -36 6 -55 10
-19 4 -51 9 -70 13 -37 7 -4414 16 -4421 9z"/>
</g>
</svg>
